<svg ria-hiddaen="true" style="position: absolute; width: 0; height: 0; overflow: hidden;" 
version="1.1" xmlns="http://www.w3.org/2000/svg" xmlns:xlink="http://www.w3.org/1999/xlink">
<defs>
<symbol width="24" height="24" viewBox="0 0 24 24" fill="currentColor" xmlns="http://www.w3.org/2000/svg" id="loop">
<g clip-path="url(#clip0_28_4362)">
<path d="M15.5 14H14.71L14.43 13.73C15.41 12.59 16 11.11 16 9.5C16 5.91 13.09 3 9.5 3C5.91 3 3 5.91 3 9.5C3 13.09 5.91 16 9.5 16C11.11 16 12.59 15.41 13.73 14.43L14 14.71V15.5L19 20.49L20.49 19L15.5 14ZM9.5 14C7.01 14 5 11.99 5 9.5C5 7.01 7.01 5 9.5 5C11.99 5 14 7.01 14 9.5C14 11.99 11.99 14 9.5 14Z" fill="currentColor"/>
</g>
<defs>
<clipPath id="clip0_28_4362">
<rect width="24" height="24" fill="white"/>
</clipPath>
</defs>
</symbol>
<symbol width="22" height="43" viewBox="0 0 22 43" fill="currentColor" xmlns="http://www.w3.org/2000/svg" id="flower">
<path d="M21.9819 13.3206V6.66143C21.9819 5.92592 21.3853 5.32959 20.6493 5.32959H19.3168V1.33408C19.3168 0.598573 18.7202 0.002243 17.9843 0.002243C16.0977 0.002243 13.2087 -0.142261 9.8172 1.88846C7.70897 1.26125 6.21795 1.33408 4.65897 1.33408C3.923 1.33408 3.32644 1.93041 3.32644 2.66592V5.32959H1.99391C1.25793 5.32959 0.661377 5.92592 0.661377 6.66143V13.3206C0.661377 18.7447 4.73767 23.2348 9.98909 23.8922V41.2892C9.98909 42.0247 10.5856 42.621 11.3216 42.621C12.0576 42.621 12.6542 42.0247 12.6542 41.2892V36.6278H14.6529C18.6941 36.6278 21.9819 33.3417 21.9819 29.3027V27.3049C21.9819 26.5694 21.3853 25.9731 20.6493 25.9731H17.318C15.5478 25.9731 13.9222 26.6036 12.6542 27.6518V23.8916C17.8977 23.2426 21.9819 18.7747 21.9819 13.3206ZM19.3168 13.3206C19.3168 15.6909 18.268 17.8316 16.6104 19.2994C16.6366 19.0857 16.6517 18.8686 16.6517 18.648C16.6517 15.2752 15.3902 12.1918 13.3148 9.84277C15.0743 8.64279 17.1604 7.99327 19.3168 7.99327V13.3206ZM16.6517 2.66592V5.59829C16.4055 5.6484 16.161 5.70559 15.9184 5.76943C15.054 4.80227 14.0681 3.97828 12.9916 3.31244C14.1552 2.88725 15.3903 2.66592 16.6517 2.66592ZM5.9915 3.99776C8.63882 3.99776 11.2097 4.96392 13.2091 6.80993C12.5492 7.1503 11.9165 7.5471 11.3177 7.99701C9.76839 6.83282 7.95807 5.99793 5.9915 5.59737V3.99776ZM3.32644 13.3206V7.99327C9.20448 7.99327 13.9867 12.7729 13.9867 18.648C13.9867 20.1363 12.757 21.349 11.2516 21.3104C6.57023 21.1949 3.32644 17.4775 3.32644 13.3206ZM17.318 28.6367H19.3168V29.3027C19.3168 31.8729 17.2247 33.9641 14.6529 33.9641H12.6542V33.2982C12.6542 30.7279 14.7464 28.6367 17.318 28.6367Z" fill="currentColor"/>
</symbol>
<symbol width="12" height="20" viewBox="0 0 12 20" fill="none" xmlns="http://www.w3.org/2000/svg" id="arrowRight">
<path fill-rule="evenodd" clip-rule="evenodd" d="M7.03447 9.92507L0.903193 16.0563C0.104969 16.8546 0.104969 18.1487 0.903193 18.947C1.70142 19.7452 2.99559 19.7452 3.79382 18.947L11.4013 11.3395C12.1996 10.5412 12.1996 9.24705 11.4013 8.44883C11.2989 8.34639 11.1883 8.25709 11.0716 8.18094L3.48932 0.598667C2.6911 -0.199556 1.39692 -0.199555 0.598697 0.598668C-0.199527 1.39689 -0.199527 2.69107 0.598697 3.48929L7.03447 9.92507Z" fill="#020B20"/>
</symbol>
<symbol width="12" height="20" viewBox="0 0 12 20" fill="none" xmlns="http://www.w3.org/2000/svg" id="arrowLeft">
<path fill-rule="evenodd" clip-rule="evenodd" d="M4.96553 9.92507L11.0968 16.0563C11.895 16.8546 11.895 18.1487 11.0968 18.947C10.2986 19.7452 9.00441 19.7452 8.20618 18.947L0.598668 11.3395C-0.199556 10.5412 -0.199556 9.24705 0.598668 8.44883C0.70111 8.34639 0.81172 8.25709 0.928403 8.18094L8.51068 0.598667C9.3089 -0.199556 10.6031 -0.199555 11.4013 0.598668C12.1995 1.39689 12.1995 2.69107 11.4013 3.48929L4.96553 9.92507Z" fill="#020B20"/>
</symbol>
<symbol width="32" height="32" viewBox="0 0 32 32" fill="none" xmlns="http://www.w3.org/2000/svg" id="facebook">
<path fill-rule="evenodd" clip-rule="evenodd" d="M17.4888 24.7157V16.0005H20.3111L20.7721 12.1271H17.4888V10.2408C17.4888 9.24335 17.516 8.2537 19.0026 8.2537H20.5084V5.4842C20.5084 5.44256 19.215 5.34863 17.9065 5.34863C15.1737 5.34863 13.4626 6.9532 13.4626 9.8999V12.1271H10.443V16.0005H13.4626V24.7157H17.4888Z" fill="white"/>
</symbol>
<symbol width="32" height="32" viewBox="0 0 32 32" fill="none" xmlns="http://www.w3.org/2000/svg" id="linkedin">
<path fill-rule="evenodd" clip-rule="evenodd" d="M26.3291 24.7152H22.3564V17.4806C22.3564 15.496 21.5151 14.3889 20.0065 14.3889C18.3648 14.3889 17.3904 15.5425 17.3904 17.4806V24.7152H13.4177V11.2776H17.3904V12.7888C17.3904 12.7888 18.6369 10.5127 21.4456 10.5127C24.2553 10.5127 26.3291 12.2968 26.3291 15.9891C26.3291 19.6803 26.3291 24.7152 26.3291 24.7152ZM7.60797 7.93006C6.53789 7.93006 5.67087 7.06265 5.67087 5.99296C5.67087 4.92405 6.53789 4.05664 7.60797 4.05664C8.67727 4.05664 9.54429 4.92405 9.54429 5.99296C9.54508 7.06265 8.67727 7.93006 7.60797 7.93006ZM5.67087 24.7152H9.54429V11.8038H5.67087V24.7152Z" fill="white"/>
</symbol>
<symbol width="32" height="32" viewBox="0 0 32 32" fill="none" xmlns="http://www.w3.org/2000/svg" id="google">
<path fill-rule="evenodd" clip-rule="evenodd" d="M25.2691 13.8735H16.5833C16.5833 14.7768 16.5833 16.5834 16.5778 17.4867H21.6109C21.4181 18.39 20.7343 19.6546 19.768 20.2914C19.7671 20.2905 19.7662 20.2968 19.7644 20.2959C18.4798 21.1441 16.7845 21.3365 15.5258 21.0836C13.5528 20.6915 11.9913 19.2607 11.3573 17.4433C11.361 17.4406 11.3638 17.4153 11.3666 17.4135C10.9697 16.2862 10.9697 14.7768 11.3666 13.8735H11.3656C11.8769 12.2133 13.4854 10.6985 15.4612 10.2839C17.0503 9.94692 18.8434 10.3119 20.1621 11.5457C20.3374 11.3741 22.5891 9.17552 22.758 8.99666C18.2528 4.91651 11.039 6.35183 8.33967 11.6207H8.33875C8.33875 11.6207 8.33967 11.6207 8.33414 11.6307C6.9988 14.2186 7.05417 17.2681 8.34337 19.7323C8.33967 19.735 8.33691 19.7368 8.33414 19.7395C9.50244 22.0067 11.6287 23.7456 14.1904 24.4077C16.9119 25.1213 20.3753 24.6335 22.6953 22.5352C22.6962 22.5361 22.6971 22.537 22.698 22.5379C24.6637 20.7674 25.8874 17.7513 25.2691 13.8735Z" fill="white"/>
</symbol>


</defs>
</svg>